<svg width="21" height="17" viewBox="0 0 21 17" fill="none" xmlns="http://www.w3.org/2000/svg">
<path d="M14.8836 5.52324L18.77 1.63679L19.4735 2.34031L14.5394 7.29195L11.7071 4.45969L12.41 3.75679L14.1764 5.52324L14.53 5.87679L14.8836 5.52324ZM16.0564 13.3532L18.2929 15.5897L17.59 16.2926L15.3536 14.0561L15 13.7026L14.6464 14.0561L12.41 16.2926L11.7071 15.5897L13.9436 13.3532L14.2971 12.9997L13.9436 12.6461L11.7071 10.4097L12.41 9.70679L14.6464 11.9432L15 12.2968L15.3536 11.9432L17.59 9.70679L18.2929 10.4097L16.0564 12.6461L15.7029 12.9997L16.0564 13.3532ZM0.5 5.49969V4.49969H8.5V5.49969H0.5ZM0.5 13.4997V12.4997H8.5V13.4997H0.5Z" fill="#253858" fill-opacity="0.54" stroke="white"/>
</svg>
