<svg width="20" height="17" viewBox="0 0 20 17" fill="none" xmlns="http://www.w3.org/2000/svg">
<path d="M9.99998 3.83333C12.3 3.83333 14.1666 5.7 14.1666 8C14.1666 8.54167 14.0583 9.05 13.8666 9.525L16.3 11.9583C17.5583 10.9083 18.55 9.55 19.1583 8C17.7166 4.34167 14.1583 1.75 9.99165 1.75C8.82498 1.75 7.70831 1.95833 6.67498 2.33333L8.47498 4.13333C8.94998 3.94167 9.45831 3.83333 9.99998 3.83333ZM1.66665 1.55833L3.94998 3.84167C2.56665 4.91667 1.48331 6.35 0.833313 8C2.27498 11.6583 5.83331 14.25 9.99998 14.25C11.2916 14.25 12.525 14 13.65 13.55L14 13.9L16.4416 16.3333L17.5 15.275L2.72498 0.5L1.66665 1.55833ZM6.27498 6.16667L7.56665 7.45833C7.52498 7.63333 7.49998 7.81667 7.49998 8C7.49998 9.38333 8.61665 10.5 9.99998 10.5C10.1833 10.5 10.3666 10.475 10.5416 10.4333L11.8333 11.725C11.275 12 10.6583 12.1667 9.99998 12.1667C7.69998 12.1667 5.83331 10.3 5.83331 8C5.83331 7.34167 5.99998 6.725 6.27498 6.16667ZM9.86665 5.51667L12.4916 8.14167L12.5083 8.00833C12.5083 6.625 11.3916 5.50833 10.0083 5.50833L9.86665 5.51667Z" fill="#253858" fill-opacity="0.54"/>
</svg>
