<svg width="62" height="16" viewBox="0 0 62 16" fill="none" xmlns="http://www.w3.org/2000/svg">
<path d="M24.5 13.1641C23.7031 13.1641 22.9974 13.0391 22.3828 12.7891C21.7734 12.5391 21.263 12.1823 20.8516 11.7188C20.4401 11.2552 20.1276 10.6953 19.9141 10.0391C19.7057 9.38281 19.6016 8.64844 19.6016 7.83594V6.58594H27.6641V8.42188H21.9375V8.67188C21.9375 9.02083 21.9844 9.34896 22.0781 9.65625C22.1719 9.95833 22.3177 10.224 22.5156 10.4531C22.7188 10.6823 22.9844 10.862 23.3125 10.9922C23.6406 11.1224 24.0365 11.1875 24.5 11.1875C24.9219 11.1875 25.2917 11.1016 25.6094 10.9297C25.9271 10.7578 26.1927 10.5234 26.4062 10.2266C26.6198 9.92448 26.7786 9.57552 26.8828 9.17969C26.9922 8.77865 27.0469 8.35156 27.0469 7.89844V6.75781C27.0469 6.29948 26.9896 5.8724 26.875 5.47656C26.7656 5.07552 26.5859 4.72396 26.3359 4.42188C26.0911 4.11458 25.7656 3.875 25.3594 3.70312C24.9583 3.53125 24.4609 3.44531 23.8672 3.44531C23.1693 3.44531 22.5625 3.5026 22.0469 3.61719C21.5312 3.73177 21.1198 3.84635 20.8125 3.96094L20.4375 2.10156C20.5573 2.03906 20.7917 1.95833 21.1406 1.85938C21.4896 1.75521 21.9115 1.66406 22.4062 1.58594C22.901 1.5026 23.4297 1.46094 23.9922 1.46094C24.8724 1.46094 25.6484 1.59115 26.3203 1.85156C26.9922 2.11198 27.5547 2.47917 28.0078 2.95312C28.4609 3.42188 28.8021 3.97917 29.0312 4.625C29.2604 5.27083 29.375 5.98177 29.375 6.75781V7.89844C29.375 8.67448 29.25 9.38542 29 10.0312C28.7552 10.6719 28.4115 11.2266 27.9688 11.6953C27.5312 12.1641 27.0156 12.526 26.4219 12.7812C25.8281 13.0365 25.1875 13.1641 24.5 13.1641ZM33.3906 1V13H31.1328V1H33.3906ZM37.625 4.54688V13H35.3672V4.54688H37.625ZM35.2266 2.34375C35.2266 2.01562 35.3411 1.74479 35.5703 1.53125C35.7995 1.31771 36.1068 1.21094 36.4922 1.21094C36.8724 1.21094 37.1771 1.31771 37.4062 1.53125C37.6406 1.74479 37.7578 2.01562 37.7578 2.34375C37.7578 2.67188 37.6406 2.94271 37.4062 3.15625C37.1771 3.36979 36.8724 3.47656 36.4922 3.47656C36.1068 3.47656 35.7995 3.36979 35.5703 3.15625C35.3411 2.94271 35.2266 2.67188 35.2266 2.34375ZM44.6797 1.625H46.6641L49.5859 9.97656L52.5078 1.625H54.4922L50.3828 13H48.7891L44.6797 1.625ZM43.6094 1.625H45.5859L45.9453 9.76562V13H43.6094V1.625ZM53.5859 1.625H55.5703V13H53.2266V9.76562L53.5859 1.625ZM57.5938 11.9141C57.5938 11.5807 57.7083 11.3021 57.9375 11.0781C58.1719 10.8542 58.4818 10.7422 58.8672 10.7422C59.2526 10.7422 59.5599 10.8542 59.7891 11.0781C60.0234 11.3021 60.1406 11.5807 60.1406 11.9141C60.1406 12.2474 60.0234 12.526 59.7891 12.75C59.5599 12.974 59.2526 13.0859 58.8672 13.0859C58.4818 13.0859 58.1719 12.974 57.9375 12.75C57.7083 12.526 57.5938 12.2474 57.5938 11.9141Z" fill="#253858"/>
<rect y="1" width="12" height="12" rx="6" fill="#19CC95"/>
</svg>
